<svg xmlns="http://www.w3.org/2000/svg" version="1.1" xmlns:xlink="http://www.w3.org/1999/xlink" width="40" height="40" x="0" y="0" viewBox="0 0 512 512" style="enable-background:new 0 0 512 512" xml:space="preserve" class="">
	<g>
		<linearGradient id="a" x1="130.131" x2="1350.696" y1="66.293" y2="1286.881" gradientTransform="matrix(.36918 0 0 -.36918 0 511.231)" gradientUnits="userSpaceOnUse">
			<stop stop-opacity="1" stop-color="#010101" offset="1">
			</stop>
			<stop stop-opacity="1" stop-color="#ffffff" offset="1">
			</stop>
		</linearGradient>
		<path fill="url(#a)" d="M506.633 316.32a8.594 8.594 0 0 0-9.387 2.047l-36.445 38.309V129.133h.043l34.773-37.547c3.2-3.457 2.988-8.86-.472-12.059l-.008-.007L482.62 67.87l17.39-18.77c3.196-3.464 2.985-8.863-.476-12.058L461.985 2.27c-3.458-3.2-8.856-2.989-12.055.468L389.258 68.25H93.868c-.028-23.555-19.114-42.64-42.669-42.668h-8.531C19.113 25.609.028 44.695 0 68.25v366.934c0 4.71 3.82 8.53 8.535 8.53h129.176l-17.918 21.524a8.526 8.526 0 0 0 1.098 12.012l39.347 32.762c3.621 3.015 9.004 2.527 12.02-1.094 0-.004.004-.004.004-.008l43.675-52.472a25.299 25.299 0 0 0 5.598-12.723h156.363l-51.285 53.855a8.534 8.534 0 0 0 .305 12.063 8.535 8.535 0 0 0 5.883 2.347h170.668c4.71 0 8.531-3.82 8.531-8.53v-179.2a8.54 8.54 0 0 0-5.367-7.93zm-29.34-230.152-16.492 17.844V91.46l10.238-11.094zm-33.559-1.52v.122l-72.168 77.996-25.062-23.188 86.937-93.953 25.063 23.188-14.668 15.835zm-88.558 86.188-19.63 5.726 4.192-20.019zM456.629 20.574l25.05 23.176-11.593 12.55-25.055-23.202zM42.668 42.648h8.531c14.14 0 25.602 11.461 25.602 25.602v324.488a42.245 42.245 0 0 0-25.602-8.758h-8.531a42.22 42.22 0 0 0-25.602 8.758V68.25c0-14.14 11.461-25.602 25.602-25.602zm0 358.399h8.531c14.14 0 25.602 11.465 25.602 25.601H17.066c0-14.136 11.461-25.601 25.602-25.601zm160.16 44.476-5.46 6.555-26.231-21.836 5.453-6.562a8.531 8.531 0 0 1 12.015-1.098c.004 0 .004.004.008.004l13.114 10.89a8.532 8.532 0 0 1 1.109 12.016l-.008.008zm-38.219 45.91-26.234-21.835 21.84-26.243 26.23 21.84zm53.34-64.785a25.342 25.342 0 0 0-5.308-6.261l-13.114-10.914c-10.867-9.047-27.007-7.575-36.054 3.293l-11.578 13.882H93.867V85.316H373.47l-45.285 48.938a8.29 8.29 0 0 0-1.52 2.484c-.102.246-.18.477-.266.735-.082.254-.21.511-.27.785l-10.19 48.707a8.533 8.533 0 0 0 10.742 9.933l47.789-13.925c.222-.07.41-.2.62-.274.216-.078.438-.191.669-.3a8.438 8.438 0 0 0 2.558-1.801l65.418-70.7v264.696l-49.578 52.054zm276.985 68.266H352.707l142.227-149.332zm-93.22-22.332a8.523 8.523 0 0 0 7.888 5.266h59.73a8.533 8.533 0 0 0 8.535-8.532v-59.734c0-4.715-3.824-8.531-8.535-8.531a8.533 8.533 0 0 0-6.031 2.496l-59.735 59.734a8.536 8.536 0 0 0-1.851 9.301zm59.087-42.402v30.601h-30.602zm-85.336-105.93h-59.73v-93.867a8.64 8.64 0 0 0-2.512-6.043l-51.2-51.2a8.532 8.532 0 0 0-12.066 0l-51.2 51.2a8.644 8.644 0 0 0-2.491 6.043v93.867h-59.73a8.533 8.533 0 1 0 0 17.066h238.929a8.534 8.534 0 1 0 0-17.066zM256 191.246l30.602 30.602h-61.204zm-42.668 47.668h85.336v85.336h-85.336zm51.203-85.332h-17.07v-17.066h17.07zm-17.07 204.8h17.07v17.067h-17.07zm0 0" opacity="1" data-original="url(#a)" class="">
		</path>
	</g>
</svg>
