<?xml version="1.0" encoding="utf-8"?>
<!-- Generator: Adobe Illustrator 19.0.0, SVG Export Plug-In . SVG Version: 6.00 Build 0)  -->
<svg version="1.1" id="Layer_1" xmlns="http://www.w3.org/2000/svg" xmlns:xlink="http://www.w3.org/1999/xlink" x="0px" y="0px" width="40" height="40"
	 viewBox="-272 395.9 50 50" style="enable-background:new -272 395.9 50 50;" xml:space="preserve">
<g>
	<g>
		<path d="M-237.9,432.4v-6.3c0-0.9-0.8-1.7-1.7-1.7h-22c-0.9,0-1.7,0.8-1.7,1.7v6.3c-0.7,0.2-1.2,0.9-1.2,1.7c0,1,0.8,1.8,1.8,1.8
			h24.3c1,0,1.8-0.8,1.8-1.8C-236.7,433.3-237.2,432.6-237.9,432.4z M-262.2,426.1c0-0.3,0.3-0.6,0.6-0.6h22c0.3,0,0.6,0.3,0.6,0.6
			v6.2h-23.2V426.1z M-238.5,434.7h-24.3c-0.4,0-0.6-0.3-0.6-0.6c0-0.4,0.3-0.6,0.6-0.6h24.3c0.4,0,0.6,0.3,0.6,0.6
			C-237.8,434.4-238.1,434.7-238.5,434.7z"/>
	</g>
</g>
<g>
	<g>
		<path d="M-236.7,426.6h-0.5v1.1h0.5c0.6,0,0.6,0.2,0.6,0.4v7.7c0,0.5-0.4,1.1-0.6,1.1h-27.7c-0.3,0-0.8-0.7-0.8-1.1v-7.7
			c0-0.1,0-0.4,0.8-0.4h0.5v-1.1h-0.5c-0.5,0-0.9,0.1-1.3,0.3c-0.5,0.3-0.7,0.7-0.7,1.2v7.7c0,0.5,0.2,1,0.5,1.5
			c0.4,0.5,0.9,0.8,1.4,0.8h0.5v2.5h1.1v-2.5h25v2.5h1.1v-2.5c1.1,0,1.8-1.4,1.8-2.3v-7.7C-234.9,427.5-235.2,426.6-236.7,426.6z"/>
	</g>
</g>
<g>
	<g>
		<rect x="-260.3" y="427.8" width="1.2" height="1.1"/>
	</g>
</g>
<g>
	<g>
		<rect x="-242.2" y="427.8" width="1.3" height="1.1"/>
	</g>
</g>
<g>
	<g>
		<rect x="-251.2" y="427.8" width="1.2" height="1.1"/>
	</g>
</g>
<g>
	<g>
		<path d="M-266.4,414.6h18.8v-13.3h-18.8V414.6z M-265.2,402.4h16.5v11h-16.5V402.4z"/>
	</g>
</g>
<g>
	<g>
		<path d="M-264.6,403.1v9.7h15.1v-9.7H-264.6z M-250.6,411.6h-12.8v-7.4h12.8L-250.6,411.6L-250.6,411.6z"/>
	</g>
</g>
<g>
	<g>
		<path d="M-246.9,414.6v8.4h10.9v-8.4H-246.9z M-237.2,421.9h-8.6v-6.1h8.6V421.9z"/>
	</g>
</g>
<g>
	<g>
		<path d="M-245.1,416.5v4.8h7.2v-4.8H-245.1z M-239,420.1h-4.9v-2.5h4.9V420.1z"/>
	</g>
</g>
<g>
	<g>
		<path d="M-241.5,403.7c-2.7,0-4.8,2.2-4.8,4.8c0,2.7,2.2,4.8,4.8,4.8s4.8-2.2,4.8-4.8C-236.7,405.9-238.8,403.7-241.5,403.7z
			 M-240.9,412.2v-0.6h-1.1v0.6c-1.5-0.2-2.8-1.5-3-3h0.7V408h-0.7c0.2-1.6,1.5-2.9,3.1-3.1v0.8h1.1v-0.8c1.6,0.3,2.8,1.5,3.1,3.1
			h-0.8v1.1h0.7C-238.2,410.7-239.4,411.9-240.9,412.2z"/>
	</g>
</g>
<g>
	<g>
		<polygon points="-242.1,406.6 -242.1,408 -244,408 -244,409.2 -240.9,409.2 -240.9,406.6 		"/>
	</g>
</g>
<g>
	<g>
		<path d="M-230.6,437.5L-230.6,437.5V424h-1.1v13.5h-3.1v3h7.2v-3L-230.6,437.5L-230.6,437.5z M-228.7,439.3h-4.9v-0.7h4.9V439.3z"
			/>
	</g>
</g>
<g>
	<g>
		<path d="M-233.6,409.2v13.3h1.8v1h1.1v-1h1.8v-13.3H-233.6z M-229.9,419.5h-1.8v1.1h1.8v0.7h-2.5v-11h2.5L-229.9,419.5
			L-229.9,419.5z"/>
	</g>
</g>
<g>
	<g>
		<rect x="-259.4" y="406.1" transform="matrix(-0.7071 0.7071 -0.7071 -0.7071 -153.7404 877.0876)" width="1.7" height="1.1"/>
	</g>
</g>
<g>
	<g>
		<rect x="-260" y="407" transform="matrix(-0.7071 0.7071 -0.7071 -0.7071 -150.5018 877.5693)" width="6" height="1.1"/>
	</g>
</g>
<g>
	<g>
		<rect x="-256.3" y="408.6" transform="matrix(-0.7071 0.7071 -0.7071 -0.7071 -146.8333 879.0896)" width="1.7" height="1.1"/>
	</g>
</g>
</svg>
